<?xml version="1.0" encoding="utf-8" standalone="no"?>
<!DOCTYPE svg PUBLIC "-//W3C//DTD SVG 1.1//EN"
  "http://www.w3.org/Graphics/SVG/1.1/DTD/svg11.dtd">
<!-- Created with matplotlib (https://matplotlib.org/) -->
<svg height="345.6pt" version="1.1" viewBox="0 0 460.8 345.6" width="460.8pt" xmlns="http://www.w3.org/2000/svg" xmlns:xlink="http://www.w3.org/1999/xlink">
 <metadata>
  <rdf:RDF xmlns:cc="http://creativecommons.org/ns#" xmlns:dc="http://purl.org/dc/elements/1.1/" xmlns:rdf="http://www.w3.org/1999/02/22-rdf-syntax-ns#">
   <cc:Work>
    <dc:type rdf:resource="http://purl.org/dc/dcmitype/StillImage"/>
    <dc:date>2020-12-01T16:06:47.476752</dc:date>
    <dc:format>image/svg+xml</dc:format>
    <dc:creator>
     <cc:Agent>
      <dc:title>Matplotlib v3.3.3, https://matplotlib.org/</dc:title>
     </cc:Agent>
    </dc:creator>
   </cc:Work>
  </rdf:RDF>
 </metadata>
 <defs>
  <style type="text/css">*{stroke-linecap:butt;stroke-linejoin:round;}</style>
 </defs>
 <g id="figure_1">
  <g id="patch_1">
   <path d="M 0 345.6 
L 460.8 345.6 
L 460.8 0 
L 0 0 
z
" style="fill:#ffffff;"/>
  </g>
  <g id="axes_1">
   <g id="patch_2">
    <path d="M 57.6 307.584 
L 414.72 307.584 
L 414.72 41.472 
L 57.6 41.472 
z
" style="fill:#ffffff;"/>
   </g>
   <g id="matplotlib.axis_1">
    <g id="xtick_1">
     <g id="line2d_1">
      <path clip-path="url(#p8a693c28c7)" d="M 73.832727 307.584 
L 73.832727 41.472 
" style="fill:none;stroke:#b0b0b0;stroke-linecap:square;stroke-width:0.8;"/>
     </g>
     <g id="line2d_2">
      <defs>
       <path d="M 0 0 
L 0 3.5 
" id="m4d407f117d" style="stroke:#000000;stroke-width:0.8;"/>
      </defs>
      <g>
       <use style="stroke:#000000;stroke-width:0.8;" x="73.832727" xlink:href="#m4d407f117d" y="307.584"/>
      </g>
     </g>
     <g id="text_1">
      <!-- 0 -->
      <g transform="translate(70.651477 322.182437)scale(0.1 -0.1)">
       <defs>
        <path d="M 31.78125 66.40625 
Q 24.171875 66.40625 20.328125 58.90625 
Q 16.5 51.421875 16.5 36.375 
Q 16.5 21.390625 20.328125 13.890625 
Q 24.171875 6.390625 31.78125 6.390625 
Q 39.453125 6.390625 43.28125 13.890625 
Q 47.125 21.390625 47.125 36.375 
Q 47.125 51.421875 43.28125 58.90625 
Q 39.453125 66.40625 31.78125 66.40625 
z
M 31.78125 74.21875 
Q 44.046875 74.21875 50.515625 64.515625 
Q 56.984375 54.828125 56.984375 36.375 
Q 56.984375 17.96875 50.515625 8.265625 
Q 44.046875 -1.421875 31.78125 -1.421875 
Q 19.53125 -1.421875 13.0625 8.265625 
Q 6.59375 17.96875 6.59375 36.375 
Q 6.59375 54.828125 13.0625 64.515625 
Q 19.53125 74.21875 31.78125 74.21875 
z
" id="DejaVuSans-48"/>
       </defs>
       <use xlink:href="#DejaVuSans-48"/>
      </g>
     </g>
    </g>
    <g id="xtick_2">
     <g id="line2d_3">
      <path clip-path="url(#p8a693c28c7)" d="M 119.175541 307.584 
L 119.175541 41.472 
" style="fill:none;stroke:#b0b0b0;stroke-linecap:square;stroke-width:0.8;"/>
     </g>
     <g id="line2d_4">
      <g>
       <use style="stroke:#000000;stroke-width:0.8;" x="119.175541" xlink:href="#m4d407f117d" y="307.584"/>
      </g>
     </g>
     <g id="text_2">
      <!-- 25 -->
      <g transform="translate(112.813041 322.182437)scale(0.1 -0.1)">
       <defs>
        <path d="M 19.1875 8.296875 
L 53.609375 8.296875 
L 53.609375 0 
L 7.328125 0 
L 7.328125 8.296875 
Q 12.9375 14.109375 22.625 23.890625 
Q 32.328125 33.6875 34.8125 36.53125 
Q 39.546875 41.84375 41.421875 45.53125 
Q 43.3125 49.21875 43.3125 52.78125 
Q 43.3125 58.59375 39.234375 62.25 
Q 35.15625 65.921875 28.609375 65.921875 
Q 23.96875 65.921875 18.8125 64.3125 
Q 13.671875 62.703125 7.8125 59.421875 
L 7.8125 69.390625 
Q 13.765625 71.78125 18.9375 73 
Q 24.125 74.21875 28.421875 74.21875 
Q 39.75 74.21875 46.484375 68.546875 
Q 53.21875 62.890625 53.21875 53.421875 
Q 53.21875 48.921875 51.53125 44.890625 
Q 49.859375 40.875 45.40625 35.40625 
Q 44.1875 33.984375 37.640625 27.21875 
Q 31.109375 20.453125 19.1875 8.296875 
z
" id="DejaVuSans-50"/>
        <path d="M 10.796875 72.90625 
L 49.515625 72.90625 
L 49.515625 64.59375 
L 19.828125 64.59375 
L 19.828125 46.734375 
Q 21.96875 47.46875 24.109375 47.828125 
Q 26.265625 48.1875 28.421875 48.1875 
Q 40.625 48.1875 47.75 41.5 
Q 54.890625 34.8125 54.890625 23.390625 
Q 54.890625 11.625 47.5625 5.09375 
Q 40.234375 -1.421875 26.90625 -1.421875 
Q 22.3125 -1.421875 17.546875 -0.640625 
Q 12.796875 0.140625 7.71875 1.703125 
L 7.71875 11.625 
Q 12.109375 9.234375 16.796875 8.0625 
Q 21.484375 6.890625 26.703125 6.890625 
Q 35.15625 6.890625 40.078125 11.328125 
Q 45.015625 15.765625 45.015625 23.390625 
Q 45.015625 31 40.078125 35.4375 
Q 35.15625 39.890625 26.703125 39.890625 
Q 22.75 39.890625 18.8125 39.015625 
Q 14.890625 38.140625 10.796875 36.28125 
z
" id="DejaVuSans-53"/>
       </defs>
       <use xlink:href="#DejaVuSans-50"/>
       <use x="63.623047" xlink:href="#DejaVuSans-53"/>
      </g>
     </g>
    </g>
    <g id="xtick_3">
     <g id="line2d_5">
      <path clip-path="url(#p8a693c28c7)" d="M 164.518354 307.584 
L 164.518354 41.472 
" style="fill:none;stroke:#b0b0b0;stroke-linecap:square;stroke-width:0.8;"/>
     </g>
     <g id="line2d_6">
      <g>
       <use style="stroke:#000000;stroke-width:0.8;" x="164.518354" xlink:href="#m4d407f117d" y="307.584"/>
      </g>
     </g>
     <g id="text_3">
      <!-- 50 -->
      <g transform="translate(158.155854 322.182437)scale(0.1 -0.1)">
       <use xlink:href="#DejaVuSans-53"/>
       <use x="63.623047" xlink:href="#DejaVuSans-48"/>
      </g>
     </g>
    </g>
    <g id="xtick_4">
     <g id="line2d_7">
      <path clip-path="url(#p8a693c28c7)" d="M 209.861168 307.584 
L 209.861168 41.472 
" style="fill:none;stroke:#b0b0b0;stroke-linecap:square;stroke-width:0.8;"/>
     </g>
     <g id="line2d_8">
      <g>
       <use style="stroke:#000000;stroke-width:0.8;" x="209.861168" xlink:href="#m4d407f117d" y="307.584"/>
      </g>
     </g>
     <g id="text_4">
      <!-- 75 -->
      <g transform="translate(203.498668 322.182437)scale(0.1 -0.1)">
       <defs>
        <path d="M 8.203125 72.90625 
L 55.078125 72.90625 
L 55.078125 68.703125 
L 28.609375 0 
L 18.3125 0 
L 43.21875 64.59375 
L 8.203125 64.59375 
z
" id="DejaVuSans-55"/>
       </defs>
       <use xlink:href="#DejaVuSans-55"/>
       <use x="63.623047" xlink:href="#DejaVuSans-53"/>
      </g>
     </g>
    </g>
    <g id="xtick_5">
     <g id="line2d_9">
      <path clip-path="url(#p8a693c28c7)" d="M 255.203982 307.584 
L 255.203982 41.472 
" style="fill:none;stroke:#b0b0b0;stroke-linecap:square;stroke-width:0.8;"/>
     </g>
     <g id="line2d_10">
      <g>
       <use style="stroke:#000000;stroke-width:0.8;" x="255.203982" xlink:href="#m4d407f117d" y="307.584"/>
      </g>
     </g>
     <g id="text_5">
      <!-- 100 -->
      <g transform="translate(245.660232 322.182437)scale(0.1 -0.1)">
       <defs>
        <path d="M 12.40625 8.296875 
L 28.515625 8.296875 
L 28.515625 63.921875 
L 10.984375 60.40625 
L 10.984375 69.390625 
L 28.421875 72.90625 
L 38.28125 72.90625 
L 38.28125 8.296875 
L 54.390625 8.296875 
L 54.390625 0 
L 12.40625 0 
z
" id="DejaVuSans-49"/>
       </defs>
       <use xlink:href="#DejaVuSans-49"/>
       <use x="63.623047" xlink:href="#DejaVuSans-48"/>
       <use x="127.246094" xlink:href="#DejaVuSans-48"/>
      </g>
     </g>
    </g>
    <g id="xtick_6">
     <g id="line2d_11">
      <path clip-path="url(#p8a693c28c7)" d="M 300.546795 307.584 
L 300.546795 41.472 
" style="fill:none;stroke:#b0b0b0;stroke-linecap:square;stroke-width:0.8;"/>
     </g>
     <g id="line2d_12">
      <g>
       <use style="stroke:#000000;stroke-width:0.8;" x="300.546795" xlink:href="#m4d407f117d" y="307.584"/>
      </g>
     </g>
     <g id="text_6">
      <!-- 125 -->
      <g transform="translate(291.003045 322.182437)scale(0.1 -0.1)">
       <use xlink:href="#DejaVuSans-49"/>
       <use x="63.623047" xlink:href="#DejaVuSans-50"/>
       <use x="127.246094" xlink:href="#DejaVuSans-53"/>
      </g>
     </g>
    </g>
    <g id="xtick_7">
     <g id="line2d_13">
      <path clip-path="url(#p8a693c28c7)" d="M 345.889609 307.584 
L 345.889609 41.472 
" style="fill:none;stroke:#b0b0b0;stroke-linecap:square;stroke-width:0.8;"/>
     </g>
     <g id="line2d_14">
      <g>
       <use style="stroke:#000000;stroke-width:0.8;" x="345.889609" xlink:href="#m4d407f117d" y="307.584"/>
      </g>
     </g>
     <g id="text_7">
      <!-- 150 -->
      <g transform="translate(336.345859 322.182437)scale(0.1 -0.1)">
       <use xlink:href="#DejaVuSans-49"/>
       <use x="63.623047" xlink:href="#DejaVuSans-53"/>
       <use x="127.246094" xlink:href="#DejaVuSans-48"/>
      </g>
     </g>
    </g>
    <g id="xtick_8">
     <g id="line2d_15">
      <path clip-path="url(#p8a693c28c7)" d="M 391.232423 307.584 
L 391.232423 41.472 
" style="fill:none;stroke:#b0b0b0;stroke-linecap:square;stroke-width:0.8;"/>
     </g>
     <g id="line2d_16">
      <g>
       <use style="stroke:#000000;stroke-width:0.8;" x="391.232423" xlink:href="#m4d407f117d" y="307.584"/>
      </g>
     </g>
     <g id="text_8">
      <!-- 175 -->
      <g transform="translate(381.688673 322.182437)scale(0.1 -0.1)">
       <use xlink:href="#DejaVuSans-49"/>
       <use x="63.623047" xlink:href="#DejaVuSans-55"/>
       <use x="127.246094" xlink:href="#DejaVuSans-53"/>
      </g>
     </g>
    </g>
    <g id="text_9">
     <!-- Generations -->
     <g transform="translate(205.662344 335.860562)scale(0.1 -0.1)">
      <defs>
       <path d="M 59.515625 10.40625 
L 59.515625 29.984375 
L 43.40625 29.984375 
L 43.40625 38.09375 
L 69.28125 38.09375 
L 69.28125 6.78125 
Q 63.578125 2.734375 56.6875 0.65625 
Q 49.8125 -1.421875 42 -1.421875 
Q 24.90625 -1.421875 15.25 8.5625 
Q 5.609375 18.5625 5.609375 36.375 
Q 5.609375 54.25 15.25 64.234375 
Q 24.90625 74.21875 42 74.21875 
Q 49.125 74.21875 55.546875 72.453125 
Q 61.96875 70.703125 67.390625 67.28125 
L 67.390625 56.78125 
Q 61.921875 61.421875 55.765625 63.765625 
Q 49.609375 66.109375 42.828125 66.109375 
Q 29.4375 66.109375 22.71875 58.640625 
Q 16.015625 51.171875 16.015625 36.375 
Q 16.015625 21.625 22.71875 14.15625 
Q 29.4375 6.6875 42.828125 6.6875 
Q 48.046875 6.6875 52.140625 7.59375 
Q 56.25 8.5 59.515625 10.40625 
z
" id="DejaVuSans-71"/>
       <path d="M 56.203125 29.59375 
L 56.203125 25.203125 
L 14.890625 25.203125 
Q 15.484375 15.921875 20.484375 11.0625 
Q 25.484375 6.203125 34.421875 6.203125 
Q 39.59375 6.203125 44.453125 7.46875 
Q 49.3125 8.734375 54.109375 11.28125 
L 54.109375 2.78125 
Q 49.265625 0.734375 44.1875 -0.34375 
Q 39.109375 -1.421875 33.890625 -1.421875 
Q 20.796875 -1.421875 13.15625 6.1875 
Q 5.515625 13.8125 5.515625 26.8125 
Q 5.515625 40.234375 12.765625 48.109375 
Q 20.015625 56 32.328125 56 
Q 43.359375 56 49.78125 48.890625 
Q 56.203125 41.796875 56.203125 29.59375 
z
M 47.21875 32.234375 
Q 47.125 39.59375 43.09375 43.984375 
Q 39.0625 48.390625 32.421875 48.390625 
Q 24.90625 48.390625 20.390625 44.140625 
Q 15.875 39.890625 15.1875 32.171875 
z
" id="DejaVuSans-101"/>
       <path d="M 54.890625 33.015625 
L 54.890625 0 
L 45.90625 0 
L 45.90625 32.71875 
Q 45.90625 40.484375 42.875 44.328125 
Q 39.84375 48.1875 33.796875 48.1875 
Q 26.515625 48.1875 22.3125 43.546875 
Q 18.109375 38.921875 18.109375 30.90625 
L 18.109375 0 
L 9.078125 0 
L 9.078125 54.6875 
L 18.109375 54.6875 
L 18.109375 46.1875 
Q 21.34375 51.125 25.703125 53.5625 
Q 30.078125 56 35.796875 56 
Q 45.21875 56 50.046875 50.171875 
Q 54.890625 44.34375 54.890625 33.015625 
z
" id="DejaVuSans-110"/>
       <path d="M 41.109375 46.296875 
Q 39.59375 47.171875 37.8125 47.578125 
Q 36.03125 48 33.890625 48 
Q 26.265625 48 22.1875 43.046875 
Q 18.109375 38.09375 18.109375 28.8125 
L 18.109375 0 
L 9.078125 0 
L 9.078125 54.6875 
L 18.109375 54.6875 
L 18.109375 46.1875 
Q 20.953125 51.171875 25.484375 53.578125 
Q 30.03125 56 36.53125 56 
Q 37.453125 56 38.578125 55.875 
Q 39.703125 55.765625 41.0625 55.515625 
z
" id="DejaVuSans-114"/>
       <path d="M 34.28125 27.484375 
Q 23.390625 27.484375 19.1875 25 
Q 14.984375 22.515625 14.984375 16.5 
Q 14.984375 11.71875 18.140625 8.90625 
Q 21.296875 6.109375 26.703125 6.109375 
Q 34.1875 6.109375 38.703125 11.40625 
Q 43.21875 16.703125 43.21875 25.484375 
L 43.21875 27.484375 
z
M 52.203125 31.203125 
L 52.203125 0 
L 43.21875 0 
L 43.21875 8.296875 
Q 40.140625 3.328125 35.546875 0.953125 
Q 30.953125 -1.421875 24.3125 -1.421875 
Q 15.921875 -1.421875 10.953125 3.296875 
Q 6 8.015625 6 15.921875 
Q 6 25.140625 12.171875 29.828125 
Q 18.359375 34.515625 30.609375 34.515625 
L 43.21875 34.515625 
L 43.21875 35.40625 
Q 43.21875 41.609375 39.140625 45 
Q 35.0625 48.390625 27.6875 48.390625 
Q 23 48.390625 18.546875 47.265625 
Q 14.109375 46.140625 10.015625 43.890625 
L 10.015625 52.203125 
Q 14.9375 54.109375 19.578125 55.046875 
Q 24.21875 56 28.609375 56 
Q 40.484375 56 46.34375 49.84375 
Q 52.203125 43.703125 52.203125 31.203125 
z
" id="DejaVuSans-97"/>
       <path d="M 18.3125 70.21875 
L 18.3125 54.6875 
L 36.8125 54.6875 
L 36.8125 47.703125 
L 18.3125 47.703125 
L 18.3125 18.015625 
Q 18.3125 11.328125 20.140625 9.421875 
Q 21.96875 7.515625 27.59375 7.515625 
L 36.8125 7.515625 
L 36.8125 0 
L 27.59375 0 
Q 17.1875 0 13.234375 3.875 
Q 9.28125 7.765625 9.28125 18.015625 
L 9.28125 47.703125 
L 2.6875 47.703125 
L 2.6875 54.6875 
L 9.28125 54.6875 
L 9.28125 70.21875 
z
" id="DejaVuSans-116"/>
       <path d="M 9.421875 54.6875 
L 18.40625 54.6875 
L 18.40625 0 
L 9.421875 0 
z
M 9.421875 75.984375 
L 18.40625 75.984375 
L 18.40625 64.59375 
L 9.421875 64.59375 
z
" id="DejaVuSans-105"/>
       <path d="M 30.609375 48.390625 
Q 23.390625 48.390625 19.1875 42.75 
Q 14.984375 37.109375 14.984375 27.296875 
Q 14.984375 17.484375 19.15625 11.84375 
Q 23.34375 6.203125 30.609375 6.203125 
Q 37.796875 6.203125 41.984375 11.859375 
Q 46.1875 17.53125 46.1875 27.296875 
Q 46.1875 37.015625 41.984375 42.703125 
Q 37.796875 48.390625 30.609375 48.390625 
z
M 30.609375 56 
Q 42.328125 56 49.015625 48.375 
Q 55.71875 40.765625 55.71875 27.296875 
Q 55.71875 13.875 49.015625 6.21875 
Q 42.328125 -1.421875 30.609375 -1.421875 
Q 18.84375 -1.421875 12.171875 6.21875 
Q 5.515625 13.875 5.515625 27.296875 
Q 5.515625 40.765625 12.171875 48.375 
Q 18.84375 56 30.609375 56 
z
" id="DejaVuSans-111"/>
       <path d="M 44.28125 53.078125 
L 44.28125 44.578125 
Q 40.484375 46.53125 36.375 47.5 
Q 32.28125 48.484375 27.875 48.484375 
Q 21.1875 48.484375 17.84375 46.4375 
Q 14.5 44.390625 14.5 40.28125 
Q 14.5 37.15625 16.890625 35.375 
Q 19.28125 33.59375 26.515625 31.984375 
L 29.59375 31.296875 
Q 39.15625 29.25 43.1875 25.515625 
Q 47.21875 21.78125 47.21875 15.09375 
Q 47.21875 7.46875 41.1875 3.015625 
Q 35.15625 -1.421875 24.609375 -1.421875 
Q 20.21875 -1.421875 15.453125 -0.5625 
Q 10.6875 0.296875 5.421875 2 
L 5.421875 11.28125 
Q 10.40625 8.6875 15.234375 7.390625 
Q 20.0625 6.109375 24.8125 6.109375 
Q 31.15625 6.109375 34.5625 8.28125 
Q 37.984375 10.453125 37.984375 14.40625 
Q 37.984375 18.0625 35.515625 20.015625 
Q 33.0625 21.96875 24.703125 23.78125 
L 21.578125 24.515625 
Q 13.234375 26.265625 9.515625 29.90625 
Q 5.8125 33.546875 5.8125 39.890625 
Q 5.8125 47.609375 11.28125 51.796875 
Q 16.75 56 26.8125 56 
Q 31.78125 56 36.171875 55.265625 
Q 40.578125 54.546875 44.28125 53.078125 
z
" id="DejaVuSans-115"/>
      </defs>
      <use xlink:href="#DejaVuSans-71"/>
      <use x="77.490234" xlink:href="#DejaVuSans-101"/>
      <use x="139.013672" xlink:href="#DejaVuSans-110"/>
      <use x="202.392578" xlink:href="#DejaVuSans-101"/>
      <use x="263.916016" xlink:href="#DejaVuSans-114"/>
      <use x="305.029297" xlink:href="#DejaVuSans-97"/>
      <use x="366.308594" xlink:href="#DejaVuSans-116"/>
      <use x="405.517578" xlink:href="#DejaVuSans-105"/>
      <use x="433.300781" xlink:href="#DejaVuSans-111"/>
      <use x="494.482422" xlink:href="#DejaVuSans-110"/>
      <use x="557.861328" xlink:href="#DejaVuSans-115"/>
     </g>
    </g>
   </g>
   <g id="matplotlib.axis_2">
    <g id="ytick_1">
     <g id="line2d_17">
      <path clip-path="url(#p8a693c28c7)" d="M 57.6 305.539439 
L 414.72 305.539439 
" style="fill:none;stroke:#b0b0b0;stroke-linecap:square;stroke-width:0.8;"/>
     </g>
     <g id="line2d_18">
      <defs>
       <path d="M 0 0 
L -3.5 0 
" id="m6034053e8f" style="stroke:#000000;stroke-width:0.8;"/>
      </defs>
      <g>
       <use style="stroke:#000000;stroke-width:0.8;" x="57.6" xlink:href="#m6034053e8f" y="305.539439"/>
      </g>
     </g>
     <g id="text_10">
      <!-- 20.0 -->
      <g transform="translate(28.334375 309.338658)scale(0.1 -0.1)">
       <defs>
        <path d="M 10.6875 12.40625 
L 21 12.40625 
L 21 0 
L 10.6875 0 
z
" id="DejaVuSans-46"/>
       </defs>
       <use xlink:href="#DejaVuSans-50"/>
       <use x="63.623047" xlink:href="#DejaVuSans-48"/>
       <use x="127.246094" xlink:href="#DejaVuSans-46"/>
       <use x="159.033203" xlink:href="#DejaVuSans-48"/>
      </g>
     </g>
    </g>
    <g id="ytick_2">
     <g id="line2d_19">
      <path clip-path="url(#p8a693c28c7)" d="M 57.6 274.043009 
L 414.72 274.043009 
" style="fill:none;stroke:#b0b0b0;stroke-linecap:square;stroke-width:0.8;"/>
     </g>
     <g id="line2d_20">
      <g>
       <use style="stroke:#000000;stroke-width:0.8;" x="57.6" xlink:href="#m6034053e8f" y="274.043009"/>
      </g>
     </g>
     <g id="text_11">
      <!-- 22.5 -->
      <g transform="translate(28.334375 277.842228)scale(0.1 -0.1)">
       <use xlink:href="#DejaVuSans-50"/>
       <use x="63.623047" xlink:href="#DejaVuSans-50"/>
       <use x="127.246094" xlink:href="#DejaVuSans-46"/>
       <use x="159.033203" xlink:href="#DejaVuSans-53"/>
      </g>
     </g>
    </g>
    <g id="ytick_3">
     <g id="line2d_21">
      <path clip-path="url(#p8a693c28c7)" d="M 57.6 242.54658 
L 414.72 242.54658 
" style="fill:none;stroke:#b0b0b0;stroke-linecap:square;stroke-width:0.8;"/>
     </g>
     <g id="line2d_22">
      <g>
       <use style="stroke:#000000;stroke-width:0.8;" x="57.6" xlink:href="#m6034053e8f" y="242.54658"/>
      </g>
     </g>
     <g id="text_12">
      <!-- 25.0 -->
      <g transform="translate(28.334375 246.345798)scale(0.1 -0.1)">
       <use xlink:href="#DejaVuSans-50"/>
       <use x="63.623047" xlink:href="#DejaVuSans-53"/>
       <use x="127.246094" xlink:href="#DejaVuSans-46"/>
       <use x="159.033203" xlink:href="#DejaVuSans-48"/>
      </g>
     </g>
    </g>
    <g id="ytick_4">
     <g id="line2d_23">
      <path clip-path="url(#p8a693c28c7)" d="M 57.6 211.05015 
L 414.72 211.05015 
" style="fill:none;stroke:#b0b0b0;stroke-linecap:square;stroke-width:0.8;"/>
     </g>
     <g id="line2d_24">
      <g>
       <use style="stroke:#000000;stroke-width:0.8;" x="57.6" xlink:href="#m6034053e8f" y="211.05015"/>
      </g>
     </g>
     <g id="text_13">
      <!-- 27.5 -->
      <g transform="translate(28.334375 214.849368)scale(0.1 -0.1)">
       <use xlink:href="#DejaVuSans-50"/>
       <use x="63.623047" xlink:href="#DejaVuSans-55"/>
       <use x="127.246094" xlink:href="#DejaVuSans-46"/>
       <use x="159.033203" xlink:href="#DejaVuSans-53"/>
      </g>
     </g>
    </g>
    <g id="ytick_5">
     <g id="line2d_25">
      <path clip-path="url(#p8a693c28c7)" d="M 57.6 179.55372 
L 414.72 179.55372 
" style="fill:none;stroke:#b0b0b0;stroke-linecap:square;stroke-width:0.8;"/>
     </g>
     <g id="line2d_26">
      <g>
       <use style="stroke:#000000;stroke-width:0.8;" x="57.6" xlink:href="#m6034053e8f" y="179.55372"/>
      </g>
     </g>
     <g id="text_14">
      <!-- 30.0 -->
      <g transform="translate(28.334375 183.352938)scale(0.1 -0.1)">
       <defs>
        <path d="M 40.578125 39.3125 
Q 47.65625 37.796875 51.625 33 
Q 55.609375 28.21875 55.609375 21.1875 
Q 55.609375 10.40625 48.1875 4.484375 
Q 40.765625 -1.421875 27.09375 -1.421875 
Q 22.515625 -1.421875 17.65625 -0.515625 
Q 12.796875 0.390625 7.625 2.203125 
L 7.625 11.71875 
Q 11.71875 9.328125 16.59375 8.109375 
Q 21.484375 6.890625 26.8125 6.890625 
Q 36.078125 6.890625 40.9375 10.546875 
Q 45.796875 14.203125 45.796875 21.1875 
Q 45.796875 27.640625 41.28125 31.265625 
Q 36.765625 34.90625 28.71875 34.90625 
L 20.21875 34.90625 
L 20.21875 43.015625 
L 29.109375 43.015625 
Q 36.375 43.015625 40.234375 45.921875 
Q 44.09375 48.828125 44.09375 54.296875 
Q 44.09375 59.90625 40.109375 62.90625 
Q 36.140625 65.921875 28.71875 65.921875 
Q 24.65625 65.921875 20.015625 65.03125 
Q 15.375 64.15625 9.8125 62.3125 
L 9.8125 71.09375 
Q 15.4375 72.65625 20.34375 73.4375 
Q 25.25 74.21875 29.59375 74.21875 
Q 40.828125 74.21875 47.359375 69.109375 
Q 53.90625 64.015625 53.90625 55.328125 
Q 53.90625 49.265625 50.4375 45.09375 
Q 46.96875 40.921875 40.578125 39.3125 
z
" id="DejaVuSans-51"/>
       </defs>
       <use xlink:href="#DejaVuSans-51"/>
       <use x="63.623047" xlink:href="#DejaVuSans-48"/>
       <use x="127.246094" xlink:href="#DejaVuSans-46"/>
       <use x="159.033203" xlink:href="#DejaVuSans-48"/>
      </g>
     </g>
    </g>
    <g id="ytick_6">
     <g id="line2d_27">
      <path clip-path="url(#p8a693c28c7)" d="M 57.6 148.05729 
L 414.72 148.05729 
" style="fill:none;stroke:#b0b0b0;stroke-linecap:square;stroke-width:0.8;"/>
     </g>
     <g id="line2d_28">
      <g>
       <use style="stroke:#000000;stroke-width:0.8;" x="57.6" xlink:href="#m6034053e8f" y="148.05729"/>
      </g>
     </g>
     <g id="text_15">
      <!-- 32.5 -->
      <g transform="translate(28.334375 151.856509)scale(0.1 -0.1)">
       <use xlink:href="#DejaVuSans-51"/>
       <use x="63.623047" xlink:href="#DejaVuSans-50"/>
       <use x="127.246094" xlink:href="#DejaVuSans-46"/>
       <use x="159.033203" xlink:href="#DejaVuSans-53"/>
      </g>
     </g>
    </g>
    <g id="ytick_7">
     <g id="line2d_29">
      <path clip-path="url(#p8a693c28c7)" d="M 57.6 116.56086 
L 414.72 116.56086 
" style="fill:none;stroke:#b0b0b0;stroke-linecap:square;stroke-width:0.8;"/>
     </g>
     <g id="line2d_30">
      <g>
       <use style="stroke:#000000;stroke-width:0.8;" x="57.6" xlink:href="#m6034053e8f" y="116.56086"/>
      </g>
     </g>
     <g id="text_16">
      <!-- 35.0 -->
      <g transform="translate(28.334375 120.360079)scale(0.1 -0.1)">
       <use xlink:href="#DejaVuSans-51"/>
       <use x="63.623047" xlink:href="#DejaVuSans-53"/>
       <use x="127.246094" xlink:href="#DejaVuSans-46"/>
       <use x="159.033203" xlink:href="#DejaVuSans-48"/>
      </g>
     </g>
    </g>
    <g id="ytick_8">
     <g id="line2d_31">
      <path clip-path="url(#p8a693c28c7)" d="M 57.6 85.06443 
L 414.72 85.06443 
" style="fill:none;stroke:#b0b0b0;stroke-linecap:square;stroke-width:0.8;"/>
     </g>
     <g id="line2d_32">
      <g>
       <use style="stroke:#000000;stroke-width:0.8;" x="57.6" xlink:href="#m6034053e8f" y="85.06443"/>
      </g>
     </g>
     <g id="text_17">
      <!-- 37.5 -->
      <g transform="translate(28.334375 88.863649)scale(0.1 -0.1)">
       <use xlink:href="#DejaVuSans-51"/>
       <use x="63.623047" xlink:href="#DejaVuSans-55"/>
       <use x="127.246094" xlink:href="#DejaVuSans-46"/>
       <use x="159.033203" xlink:href="#DejaVuSans-53"/>
      </g>
     </g>
    </g>
    <g id="ytick_9">
     <g id="line2d_33">
      <path clip-path="url(#p8a693c28c7)" d="M 57.6 53.568 
L 414.72 53.568 
" style="fill:none;stroke:#b0b0b0;stroke-linecap:square;stroke-width:0.8;"/>
     </g>
     <g id="line2d_34">
      <g>
       <use style="stroke:#000000;stroke-width:0.8;" x="57.6" xlink:href="#m6034053e8f" y="53.568"/>
      </g>
     </g>
     <g id="text_18">
      <!-- 40.0 -->
      <g transform="translate(28.334375 57.367219)scale(0.1 -0.1)">
       <defs>
        <path d="M 37.796875 64.3125 
L 12.890625 25.390625 
L 37.796875 25.390625 
z
M 35.203125 72.90625 
L 47.609375 72.90625 
L 47.609375 25.390625 
L 58.015625 25.390625 
L 58.015625 17.1875 
L 47.609375 17.1875 
L 47.609375 0 
L 37.796875 0 
L 37.796875 17.1875 
L 4.890625 17.1875 
L 4.890625 26.703125 
z
" id="DejaVuSans-52"/>
       </defs>
       <use xlink:href="#DejaVuSans-52"/>
       <use x="63.623047" xlink:href="#DejaVuSans-48"/>
       <use x="127.246094" xlink:href="#DejaVuSans-46"/>
       <use x="159.033203" xlink:href="#DejaVuSans-48"/>
      </g>
     </g>
    </g>
    <g id="text_19">
     <!-- Fitness -->
     <g transform="translate(22.254687 191.845187)rotate(-90)scale(0.1 -0.1)">
      <defs>
       <path d="M 9.8125 72.90625 
L 51.703125 72.90625 
L 51.703125 64.59375 
L 19.671875 64.59375 
L 19.671875 43.109375 
L 48.578125 43.109375 
L 48.578125 34.8125 
L 19.671875 34.8125 
L 19.671875 0 
L 9.8125 0 
z
" id="DejaVuSans-70"/>
      </defs>
      <use xlink:href="#DejaVuSans-70"/>
      <use x="50.269531" xlink:href="#DejaVuSans-105"/>
      <use x="78.052734" xlink:href="#DejaVuSans-116"/>
      <use x="117.261719" xlink:href="#DejaVuSans-110"/>
      <use x="180.640625" xlink:href="#DejaVuSans-101"/>
      <use x="242.164062" xlink:href="#DejaVuSans-115"/>
      <use x="294.263672" xlink:href="#DejaVuSans-115"/>
     </g>
    </g>
   </g>
   <g id="line2d_35">
    <path clip-path="url(#p8a693c28c7)" d="M 73.832727 171.490634 
L 75.64644 167.459091 
L 77.460152 171.238662 
L 79.273865 173.002462 
L 81.087577 174.010348 
L 82.90129 174.010348 
L 84.715003 167.207119 
L 86.528715 164.687405 
L 88.342428 178.041891 
L 90.15614 178.041891 
L 91.969853 163.427548 
L 93.783565 168.466976 
L 95.597278 173.002462 
L 97.41099 169.474862 
L 99.224703 173.002462 
L 101.038415 163.175576 
L 102.852128 179.301748 
L 104.665841 172.498519 
L 106.479553 174.514291 
L 108.293266 169.978805 
L 110.106978 170.482748 
L 111.920691 167.515084 
L 113.734403 166.955148 
L 115.548116 187.668054 
L 117.361828 163.875497 
L 119.175541 187.458706 
L 120.989253 176.404077 
L 122.802966 154.860519 
L 124.616679 163.427548 
L 126.430391 184.593148 
L 128.244104 160.40389 
L 130.057816 161.487843 
L 131.871529 172.354536 
L 133.685241 179.55372 
L 135.498954 163.93149 
L 137.312666 161.55576 
L 139.126379 184.181767 
L 140.940091 165.443319 
L 142.753804 174.925673 
L 144.567517 155.364462 
L 146.381229 155.931397 
L 148.194942 163.805505 
L 150.008654 152.844747 
L 151.822367 163.249685 
L 153.636079 159.297192 
L 155.449792 194.980542 
L 157.263504 165.669579 
L 159.077217 167.212261 
L 160.890929 161.7675 
L 162.704642 162.419662 
L 164.518354 160.285315 
L 166.332067 170.811853 
L 168.14578 153.34869 
L 169.959492 163.743747 
L 171.773205 183.08132 
L 173.586917 163.93149 
L 175.40063 159.899947 
L 177.214342 163.427548 
L 179.028055 165.443319 
L 180.841767 163.93149 
L 182.65548 152.844747 
L 184.469192 154.356576 
L 186.282905 153.852633 
L 188.096618 155.868404 
L 189.91033 178.545834 
L 191.724043 173.002462 
L 193.537755 173.506405 
L 195.351468 181.569491 
L 197.16518 153.852633 
L 198.978893 162.923605 
L 200.792605 155.868404 
L 202.606318 154.356576 
L 204.42003 182.073434 
L 206.233743 167.963033 
L 208.047456 152.340804 
L 209.861168 163.93149 
L 211.674881 162.923605 
L 213.488593 152.844747 
L 215.302306 167.459091 
L 217.116018 152.340804 
L 218.929731 152.340804 
L 220.743443 152.844747 
L 222.557156 165.947262 
L 224.370868 152.340804 
L 226.184581 153.34869 
L 227.998294 151.836861 
L 229.812006 152.844747 
L 231.625719 153.34869 
L 233.439431 152.340804 
L 235.253144 155.364462 
L 237.066856 156.372347 
L 238.880569 159.899947 
L 240.694281 153.34869 
L 242.507994 160.40389 
L 244.321706 162.923605 
L 246.135419 161.915719 
L 247.949132 190.13652 
L 249.762844 159.899947 
L 251.576557 181.065548 
L 253.390269 152.340804 
L 255.203982 163.427548 
L 257.017694 164.939376 
L 258.831407 152.844747 
L 260.645119 162.923605 
L 262.458832 153.852633 
L 264.272544 155.364462 
L 266.086257 153.852633 
L 267.89997 152.844747 
L 269.713682 161.411776 
L 271.527395 153.34869 
L 273.341107 152.844747 
L 275.15482 158.388119 
L 276.968532 153.852633 
L 278.782245 153.852633 
L 280.595957 153.34869 
L 282.40967 169.474862 
L 284.223382 156.87629 
L 286.037095 178.545834 
L 287.850808 151.836861 
L 289.66452 162.419662 
L 291.478233 152.340804 
L 293.291945 154.356576 
L 295.105658 152.844747 
L 296.91937 157.380233 
L 298.733083 152.844747 
L 300.546795 164.939376 
L 302.360508 152.340804 
L 304.17422 153.34869 
L 305.987933 153.34869 
L 307.801646 162.923605 
L 309.615358 159.899947 
L 311.429071 162.419662 
L 313.242783 153.34869 
L 315.056496 153.34869 
L 316.870208 152.844747 
L 318.683921 159.899947 
L 320.497633 153.34869 
L 322.311346 153.34869 
L 324.125058 170.986691 
L 325.938771 153.852633 
L 327.752483 164.939376 
L 329.566196 157.380233 
L 331.379909 154.860519 
L 333.193621 156.87629 
L 335.007334 154.860519 
L 336.821046 153.34869 
L 340.448471 153.34869 
L 342.262184 155.868404 
L 344.075896 153.34869 
L 345.889609 168.970919 
L 347.703321 162.419662 
L 349.517034 150.828976 
L 351.330747 153.34869 
L 353.144459 153.34869 
L 354.958172 152.340804 
L 356.771884 171.490634 
L 358.585597 152.844747 
L 360.399309 173.002462 
L 362.213022 164.435433 
L 364.026734 153.34869 
L 365.840447 154.860519 
L 367.654159 151.836861 
L 369.467872 162.923605 
L 371.281585 151.332918 
L 373.095297 163.427548 
L 374.90901 167.963033 
L 376.722722 160.40389 
L 378.536435 151.332918 
L 380.350147 161.915719 
L 383.977572 160.907833 
L 385.791285 172.498519 
L 387.604997 152.844747 
L 389.41871 151.836861 
L 391.232423 151.332918 
L 393.046135 162.923605 
L 394.859848 151.332918 
L 396.67356 151.836861 
L 398.487273 153.34869 
L 398.487273 153.34869 
" style="fill:none;stroke:#0000ff;stroke-linecap:square;stroke-width:1.5;"/>
   </g>
   <g id="line2d_36">
    <path clip-path="url(#p8a693c28c7)" d="M 73.832727 236.602706 
L 75.64644 229.228593 
L 77.460152 239.415913 
L 79.273865 248.540962 
L 81.087577 242.792551 
L 82.90129 248.124225 
L 84.715003 228.720671 
L 86.528715 223.223467 
L 88.342428 255.094906 
L 90.15614 254.681812 
L 91.969853 225.124029 
L 93.783565 232.615362 
L 95.597278 245.627083 
L 97.41099 238.847134 
L 99.224703 243.722546 
L 101.038415 223.766718 
L 102.852128 259.061356 
L 104.665841 243.41673 
L 106.479553 246.711913 
L 108.293266 238.756393 
L 110.106978 234.551906 
L 111.920691 232.598524 
L 113.734403 228.075382 
L 115.548116 282.452635 
L 117.361828 234.355249 
L 119.175541 283.502562 
L 120.989253 248.845866 
L 122.802966 192.904034 
L 124.616679 220.888086 
L 126.430391 261.969307 
L 128.244104 207.085977 
L 130.057816 227.996229 
L 131.871529 253.20525 
L 133.685241 252.799004 
L 135.498954 223.801092 
L 137.312666 229.948008 
L 139.126379 275.766234 
L 140.940091 225.423108 
L 142.753804 258.79284 
L 144.567517 193.481336 
L 146.381229 196.562606 
L 148.194942 222.981924 
L 150.008654 190.861551 
L 151.822367 232.087562 
L 153.636079 227.397994 
L 155.449792 295.488 
L 157.263504 235.757476 
L 159.077217 239.942274 
L 160.890929 229.137657 
L 162.704642 222.564352 
L 164.518354 227.940199 
L 166.332067 246.454865 
L 168.14578 191.465565 
L 169.959492 233.101802 
L 171.773205 255.980799 
L 173.586917 219.966676 
L 175.40063 216.700368 
L 177.214342 220.3887 
L 179.028055 228.820022 
L 180.841767 225.526011 
L 182.65548 190.861551 
L 184.469192 192.652919 
L 186.282905 192.884627 
L 188.096618 197.47346 
L 189.91033 257.378674 
L 191.724043 247.54684 
L 193.537755 248.050783 
L 195.351468 259.77649 
L 197.16518 196.162832 
L 198.978893 224.460375 
L 200.792605 198.379205 
L 202.606318 193.147086 
L 204.42003 264.649361 
L 206.233743 225.301901 
L 208.047456 190.584059 
L 209.861168 224.748022 
L 211.674881 224.460375 
L 213.488593 191.359305 
L 215.302306 229.331292 
L 217.116018 190.417682 
L 218.929731 190.417682 
L 220.743443 190.861551 
L 222.557156 215.377354 
L 224.370868 190.417682 
L 226.184581 191.465565 
L 227.998294 189.967059 
L 229.812006 190.861551 
L 231.625719 191.465565 
L 233.439431 190.417682 
L 235.253144 196.292566 
L 237.066856 198.260278 
L 238.880569 212.763531 
L 240.694281 191.298634 
L 242.507994 205.775544 
L 244.321706 223.051403 
L 246.135419 222.178522 
L 247.949132 276.005193 
L 249.762844 205.195975 
L 251.576557 255.413777 
L 253.390269 190.749716 
L 255.203982 224.060065 
L 257.017694 228.051054 
L 258.831407 191.850707 
L 260.645119 223.156902 
L 262.458832 192.393557 
L 264.272544 193.64754 
L 266.086257 191.728894 
L 267.89997 191.02819 
L 269.713682 219.483404 
L 271.527395 191.465565 
L 273.341107 190.861551 
L 275.15482 203.913438 
L 276.968532 193.927975 
L 278.782245 192.22847 
L 280.595957 191.298634 
L 282.40967 228.781895 
L 284.223382 197.583522 
L 286.037095 255.545272 
L 287.850808 189.967059 
L 289.66452 224.075997 
L 291.478233 190.417682 
L 293.291945 192.152292 
L 295.105658 190.861551 
L 296.91937 200.108527 
L 298.733083 190.861551 
L 300.546795 226.213525 
L 302.360508 190.417682 
L 304.17422 191.465565 
L 305.987933 191.298634 
L 307.801646 217.63333 
L 309.615358 202.074878 
L 311.429071 216.564801 
L 313.242783 191.465565 
L 315.056496 191.298634 
L 316.870208 190.861551 
L 318.683921 211.054494 
L 320.497633 191.298634 
L 322.311346 191.465565 
L 324.125058 246.175576 
L 325.938771 192.062671 
L 327.752483 218.233569 
L 329.566196 200.182757 
L 331.379909 192.73678 
L 333.193621 199.859398 
L 335.007334 193.729512 
L 336.821046 191.298634 
L 340.448471 191.298634 
L 342.262184 195.839049 
L 344.075896 192.289488 
L 345.889609 230.141365 
L 347.703321 222.564352 
L 349.517034 191.226214 
L 353.144459 191.298634 
L 354.958172 190.417682 
L 356.771884 239.930455 
L 358.585597 191.02819 
L 360.399309 246.258148 
L 362.213022 218.711742 
L 364.026734 193.65152 
L 365.840447 193.401443 
L 367.654159 189.967059 
L 369.467872 222.945719 
L 371.281585 189.675653 
L 373.095297 222.090914 
L 374.90901 231.499819 
L 376.722722 213.152051 
L 378.536435 189.50971 
L 380.350147 210.054795 
L 382.16386 214.03461 
L 383.977572 221.498451 
L 385.791285 241.969563 
L 387.604997 190.861551 
L 389.41871 190.953348 
L 391.232423 189.50971 
L 393.046135 222.945719 
L 394.859848 189.50971 
L 396.67356 189.967059 
L 398.487273 191.298634 
L 398.487273 191.298634 
" style="fill:none;stroke:#008000;stroke-dasharray:9.6,2.4,1.5,2.4;stroke-dashoffset:0;stroke-width:1.5;"/>
   </g>
   <g id="line2d_37">
    <path clip-path="url(#p8a693c28c7)" d="M 73.832727 106.378561 
L 75.64644 105.689589 
L 77.460152 103.061411 
L 79.273865 97.463963 
L 81.087577 105.228145 
L 82.90129 99.896471 
L 84.715003 105.693567 
L 86.528715 106.151343 
L 88.342428 100.988877 
L 91.969853 101.731066 
L 93.783565 104.318591 
L 95.597278 100.377841 
L 97.41099 100.10259 
L 99.224703 102.282379 
L 101.038415 102.584434 
L 102.852128 99.54214 
L 104.665841 101.580308 
L 106.479553 102.316669 
L 108.293266 101.201217 
L 110.106978 106.41359 
L 111.920691 102.431645 
L 113.734403 105.834913 
L 115.548116 92.883474 
L 117.361828 93.395745 
L 119.175541 91.41485 
L 122.802966 116.817003 
L 124.616679 105.967009 
L 126.430391 107.21699 
L 128.244104 113.721803 
L 130.057816 94.979457 
L 131.871529 91.503821 
L 133.685241 106.308435 
L 135.498954 104.061889 
L 137.312666 93.163512 
L 139.126379 92.597299 
L 140.940091 105.46353 
L 142.753804 91.058506 
L 144.567517 117.247587 
L 146.381229 115.300189 
L 148.194942 104.629085 
L 150.008654 114.827943 
L 151.822367 94.411808 
L 153.636079 91.19639 
L 155.449792 94.473085 
L 157.263504 95.581682 
L 159.077217 94.482249 
L 160.890929 94.397344 
L 162.704642 102.274971 
L 164.518354 92.630432 
L 166.332067 95.168842 
L 168.14578 115.231815 
L 169.959492 94.385692 
L 171.773205 110.181841 
L 173.586917 107.896305 
L 175.40063 103.099526 
L 177.214342 106.466396 
L 179.028055 102.066616 
L 180.841767 102.33697 
L 182.65548 114.827943 
L 184.469192 116.060233 
L 186.282905 114.820638 
L 188.096618 114.263349 
L 189.91033 99.712994 
L 191.724043 98.458084 
L 193.537755 98.962027 
L 195.351468 103.362492 
L 197.16518 111.542434 
L 198.978893 101.386835 
L 200.792605 113.357604 
L 202.606318 115.566066 
L 204.42003 99.497507 
L 206.233743 110.624166 
L 208.047456 114.097549 
L 209.861168 103.114959 
L 211.674881 101.386835 
L 213.488593 114.330189 
L 215.302306 105.586889 
L 217.116018 114.263926 
L 218.929731 114.263926 
L 220.743443 114.827943 
L 222.557156 116.51717 
L 224.370868 114.263926 
L 226.184581 115.231815 
L 227.998294 113.706664 
L 229.812006 114.827943 
L 231.625719 115.231815 
L 233.439431 114.263926 
L 235.253144 114.436357 
L 237.066856 114.484416 
L 238.880569 107.036363 
L 240.694281 115.398746 
L 242.507994 115.032236 
L 244.321706 102.795806 
L 246.135419 101.652915 
L 247.949132 104.267848 
L 249.762844 114.60392 
L 251.576557 106.71732 
L 253.390269 113.931893 
L 255.203982 102.79503 
L 257.017694 101.827698 
L 258.831407 113.838787 
L 260.645119 102.690308 
L 262.458832 115.311709 
L 264.272544 117.081383 
L 266.086257 115.976372 
L 267.89997 114.661304 
L 269.713682 103.340149 
L 271.527395 115.231815 
L 273.341107 114.827943 
L 275.15482 112.862799 
L 276.968532 113.77729 
L 278.782245 115.476795 
L 280.595957 115.398746 
L 282.40967 110.167829 
L 284.223382 116.169058 
L 286.037095 101.546396 
L 287.850808 113.706664 
L 289.66452 100.763327 
L 291.478233 114.263926 
L 293.291945 116.56086 
L 295.105658 114.827943 
L 296.91937 114.651939 
L 298.733083 114.827943 
L 300.546795 103.665227 
L 302.360508 114.263926 
L 304.17422 115.231815 
L 305.987933 115.398746 
L 307.801646 108.21388 
L 309.615358 117.725016 
L 311.429071 108.274523 
L 313.242783 115.231815 
L 315.056496 115.398746 
L 316.870208 114.827943 
L 318.683921 108.745401 
L 320.497633 115.398746 
L 322.311346 115.231815 
L 324.125058 95.797805 
L 325.938771 115.642595 
L 327.752483 111.645183 
L 329.566196 114.577709 
L 331.379909 116.984258 
L 333.193621 113.893183 
L 335.007334 115.991525 
L 336.821046 115.398746 
L 340.448471 115.398746 
L 342.262184 115.89776 
L 344.075896 114.407892 
L 345.889609 107.800473 
L 347.703321 102.274971 
L 349.517034 110.431738 
L 351.330747 115.398746 
L 353.144459 115.398746 
L 354.958172 114.263926 
L 356.771884 103.050812 
L 358.585597 114.661304 
L 360.399309 99.746777 
L 362.213022 110.159124 
L 364.026734 113.04586 
L 365.840447 116.319595 
L 367.654159 113.706664 
L 369.467872 102.90149 
L 371.281585 112.990184 
L 373.095297 104.764181 
L 374.90901 104.426248 
L 376.722722 107.655729 
L 378.536435 113.156127 
L 380.350147 113.776643 
L 382.16386 108.788942 
L 383.977572 100.317215 
L 385.791285 103.027476 
L 387.604997 114.827943 
L 389.41871 112.720375 
L 391.232423 113.156127 
L 393.046135 102.90149 
L 394.859848 113.156127 
L 396.67356 113.706664 
L 398.487273 115.398746 
L 398.487273 115.398746 
" style="fill:none;stroke:#008000;stroke-dasharray:9.6,2.4,1.5,2.4;stroke-dashoffset:0;stroke-width:1.5;"/>
   </g>
   <g id="line2d_38">
    <path clip-path="url(#p8a693c28c7)" d="M 73.832727 66.166572 
L 75.64644 66.166572 
L 77.460152 78.765144 
L 81.087577 78.765144 
L 82.90129 103.962288 
L 84.715003 91.363716 
L 88.342428 91.363716 
L 90.15614 78.765144 
L 104.665841 78.765144 
L 106.479553 91.363716 
L 110.106978 91.363716 
L 111.920691 78.765144 
L 115.548116 78.765144 
L 117.361828 103.962288 
L 122.802966 103.962288 
L 124.616679 78.765144 
L 126.430391 103.962288 
L 131.871529 103.962288 
L 133.685241 78.765144 
L 135.498954 103.962288 
L 139.126379 103.962288 
L 140.940091 116.56086 
L 142.753804 78.765144 
L 144.567517 116.56086 
L 146.381229 78.765144 
L 148.194942 78.765144 
L 150.008654 103.962288 
L 153.636079 103.962288 
L 155.449792 91.363716 
L 157.263504 103.962288 
L 168.14578 103.962288 
L 169.959492 78.765144 
L 171.773205 78.765144 
L 173.586917 116.56086 
L 175.40063 78.765144 
L 177.214342 103.962288 
L 179.028055 66.166572 
L 180.841767 78.765144 
L 182.65548 103.962288 
L 186.282905 103.962288 
L 188.096618 78.765144 
L 191.724043 103.962288 
L 193.537755 103.962288 
L 195.351468 116.56086 
L 197.16518 78.765144 
L 200.792605 78.765144 
L 202.606318 103.962288 
L 204.42003 78.765144 
L 206.233743 78.765144 
L 208.047456 103.962288 
L 209.861168 103.962288 
L 211.674881 78.765144 
L 213.488593 103.962288 
L 233.439431 103.962288 
L 235.253144 78.765144 
L 237.066856 103.962288 
L 240.694281 103.962288 
L 242.507994 78.765144 
L 244.321706 103.962288 
L 249.762844 103.962288 
L 251.576557 78.765144 
L 253.390269 103.962288 
L 255.203982 103.962288 
L 257.017694 53.568 
L 258.831407 103.962288 
L 267.89997 103.962288 
L 269.713682 66.166572 
L 271.527395 103.962288 
L 275.15482 103.962288 
L 276.968532 78.765144 
L 278.782245 103.962288 
L 287.850808 103.962288 
L 289.66452 91.363716 
L 293.291945 116.56086 
L 295.105658 103.962288 
L 307.801646 103.962288 
L 309.615358 116.56086 
L 311.429071 116.56086 
L 313.242783 103.962288 
L 327.752483 103.962288 
L 329.566196 91.363716 
L 331.379909 116.56086 
L 333.193621 103.962288 
L 344.075896 103.962288 
L 345.889609 116.56086 
L 347.703321 103.962288 
L 349.517034 78.765144 
L 351.330747 103.962288 
L 360.399309 103.962288 
L 362.213022 78.765144 
L 365.840447 103.962288 
L 378.536435 103.962288 
L 380.350147 116.56086 
L 382.16386 103.962288 
L 398.487273 103.962288 
L 398.487273 103.962288 
" style="fill:none;stroke:#ff0000;stroke-linecap:square;stroke-width:1.5;"/>
   </g>
   <g id="patch_3">
    <path d="M 57.6 307.584 
L 57.6 41.472 
" style="fill:none;stroke:#000000;stroke-linecap:square;stroke-linejoin:miter;stroke-width:0.8;"/>
   </g>
   <g id="patch_4">
    <path d="M 414.72 307.584 
L 414.72 41.472 
" style="fill:none;stroke:#000000;stroke-linecap:square;stroke-linejoin:miter;stroke-width:0.8;"/>
   </g>
   <g id="patch_5">
    <path d="M 57.6 307.584 
L 414.72 307.584 
" style="fill:none;stroke:#000000;stroke-linecap:square;stroke-linejoin:miter;stroke-width:0.8;"/>
   </g>
   <g id="patch_6">
    <path d="M 57.6 41.472 
L 414.72 41.472 
" style="fill:none;stroke:#000000;stroke-linecap:square;stroke-linejoin:miter;stroke-width:0.8;"/>
   </g>
   <g id="text_20">
    <!-- Population's average and best fitness -->
    <g transform="translate(123.529687 35.472)scale(0.12 -0.12)">
     <defs>
      <path d="M 19.671875 64.796875 
L 19.671875 37.40625 
L 32.078125 37.40625 
Q 38.96875 37.40625 42.71875 40.96875 
Q 46.484375 44.53125 46.484375 51.125 
Q 46.484375 57.671875 42.71875 61.234375 
Q 38.96875 64.796875 32.078125 64.796875 
z
M 9.8125 72.90625 
L 32.078125 72.90625 
Q 44.34375 72.90625 50.609375 67.359375 
Q 56.890625 61.8125 56.890625 51.125 
Q 56.890625 40.328125 50.609375 34.8125 
Q 44.34375 29.296875 32.078125 29.296875 
L 19.671875 29.296875 
L 19.671875 0 
L 9.8125 0 
z
" id="DejaVuSans-80"/>
      <path d="M 18.109375 8.203125 
L 18.109375 -20.796875 
L 9.078125 -20.796875 
L 9.078125 54.6875 
L 18.109375 54.6875 
L 18.109375 46.390625 
Q 20.953125 51.265625 25.265625 53.625 
Q 29.59375 56 35.59375 56 
Q 45.5625 56 51.78125 48.09375 
Q 58.015625 40.1875 58.015625 27.296875 
Q 58.015625 14.40625 51.78125 6.484375 
Q 45.5625 -1.421875 35.59375 -1.421875 
Q 29.59375 -1.421875 25.265625 0.953125 
Q 20.953125 3.328125 18.109375 8.203125 
z
M 48.6875 27.296875 
Q 48.6875 37.203125 44.609375 42.84375 
Q 40.53125 48.484375 33.40625 48.484375 
Q 26.265625 48.484375 22.1875 42.84375 
Q 18.109375 37.203125 18.109375 27.296875 
Q 18.109375 17.390625 22.1875 11.75 
Q 26.265625 6.109375 33.40625 6.109375 
Q 40.53125 6.109375 44.609375 11.75 
Q 48.6875 17.390625 48.6875 27.296875 
z
" id="DejaVuSans-112"/>
      <path d="M 8.5 21.578125 
L 8.5 54.6875 
L 17.484375 54.6875 
L 17.484375 21.921875 
Q 17.484375 14.15625 20.5 10.265625 
Q 23.53125 6.390625 29.59375 6.390625 
Q 36.859375 6.390625 41.078125 11.03125 
Q 45.3125 15.671875 45.3125 23.6875 
L 45.3125 54.6875 
L 54.296875 54.6875 
L 54.296875 0 
L 45.3125 0 
L 45.3125 8.40625 
Q 42.046875 3.421875 37.71875 1 
Q 33.40625 -1.421875 27.6875 -1.421875 
Q 18.265625 -1.421875 13.375 4.4375 
Q 8.5 10.296875 8.5 21.578125 
z
M 31.109375 56 
z
" id="DejaVuSans-117"/>
      <path d="M 9.421875 75.984375 
L 18.40625 75.984375 
L 18.40625 0 
L 9.421875 0 
z
" id="DejaVuSans-108"/>
      <path d="M 17.921875 72.90625 
L 17.921875 45.796875 
L 9.625 45.796875 
L 9.625 72.90625 
z
" id="DejaVuSans-39"/>
      <path id="DejaVuSans-32"/>
      <path d="M 2.984375 54.6875 
L 12.5 54.6875 
L 29.59375 8.796875 
L 46.6875 54.6875 
L 56.203125 54.6875 
L 35.6875 0 
L 23.484375 0 
z
" id="DejaVuSans-118"/>
      <path d="M 45.40625 27.984375 
Q 45.40625 37.75 41.375 43.109375 
Q 37.359375 48.484375 30.078125 48.484375 
Q 22.859375 48.484375 18.828125 43.109375 
Q 14.796875 37.75 14.796875 27.984375 
Q 14.796875 18.265625 18.828125 12.890625 
Q 22.859375 7.515625 30.078125 7.515625 
Q 37.359375 7.515625 41.375 12.890625 
Q 45.40625 18.265625 45.40625 27.984375 
z
M 54.390625 6.78125 
Q 54.390625 -7.171875 48.1875 -13.984375 
Q 42 -20.796875 29.203125 -20.796875 
Q 24.46875 -20.796875 20.265625 -20.09375 
Q 16.0625 -19.390625 12.109375 -17.921875 
L 12.109375 -9.1875 
Q 16.0625 -11.328125 19.921875 -12.34375 
Q 23.78125 -13.375 27.78125 -13.375 
Q 36.625 -13.375 41.015625 -8.765625 
Q 45.40625 -4.15625 45.40625 5.171875 
L 45.40625 9.625 
Q 42.625 4.78125 38.28125 2.390625 
Q 33.9375 0 27.875 0 
Q 17.828125 0 11.671875 7.65625 
Q 5.515625 15.328125 5.515625 27.984375 
Q 5.515625 40.671875 11.671875 48.328125 
Q 17.828125 56 27.875 56 
Q 33.9375 56 38.28125 53.609375 
Q 42.625 51.21875 45.40625 46.390625 
L 45.40625 54.6875 
L 54.390625 54.6875 
z
" id="DejaVuSans-103"/>
      <path d="M 45.40625 46.390625 
L 45.40625 75.984375 
L 54.390625 75.984375 
L 54.390625 0 
L 45.40625 0 
L 45.40625 8.203125 
Q 42.578125 3.328125 38.25 0.953125 
Q 33.9375 -1.421875 27.875 -1.421875 
Q 17.96875 -1.421875 11.734375 6.484375 
Q 5.515625 14.40625 5.515625 27.296875 
Q 5.515625 40.1875 11.734375 48.09375 
Q 17.96875 56 27.875 56 
Q 33.9375 56 38.25 53.625 
Q 42.578125 51.265625 45.40625 46.390625 
z
M 14.796875 27.296875 
Q 14.796875 17.390625 18.875 11.75 
Q 22.953125 6.109375 30.078125 6.109375 
Q 37.203125 6.109375 41.296875 11.75 
Q 45.40625 17.390625 45.40625 27.296875 
Q 45.40625 37.203125 41.296875 42.84375 
Q 37.203125 48.484375 30.078125 48.484375 
Q 22.953125 48.484375 18.875 42.84375 
Q 14.796875 37.203125 14.796875 27.296875 
z
" id="DejaVuSans-100"/>
      <path d="M 48.6875 27.296875 
Q 48.6875 37.203125 44.609375 42.84375 
Q 40.53125 48.484375 33.40625 48.484375 
Q 26.265625 48.484375 22.1875 42.84375 
Q 18.109375 37.203125 18.109375 27.296875 
Q 18.109375 17.390625 22.1875 11.75 
Q 26.265625 6.109375 33.40625 6.109375 
Q 40.53125 6.109375 44.609375 11.75 
Q 48.6875 17.390625 48.6875 27.296875 
z
M 18.109375 46.390625 
Q 20.953125 51.265625 25.265625 53.625 
Q 29.59375 56 35.59375 56 
Q 45.5625 56 51.78125 48.09375 
Q 58.015625 40.1875 58.015625 27.296875 
Q 58.015625 14.40625 51.78125 6.484375 
Q 45.5625 -1.421875 35.59375 -1.421875 
Q 29.59375 -1.421875 25.265625 0.953125 
Q 20.953125 3.328125 18.109375 8.203125 
L 18.109375 0 
L 9.078125 0 
L 9.078125 75.984375 
L 18.109375 75.984375 
z
" id="DejaVuSans-98"/>
      <path d="M 37.109375 75.984375 
L 37.109375 68.5 
L 28.515625 68.5 
Q 23.6875 68.5 21.796875 66.546875 
Q 19.921875 64.59375 19.921875 59.515625 
L 19.921875 54.6875 
L 34.71875 54.6875 
L 34.71875 47.703125 
L 19.921875 47.703125 
L 19.921875 0 
L 10.890625 0 
L 10.890625 47.703125 
L 2.296875 47.703125 
L 2.296875 54.6875 
L 10.890625 54.6875 
L 10.890625 58.5 
Q 10.890625 67.625 15.140625 71.796875 
Q 19.390625 75.984375 28.609375 75.984375 
z
" id="DejaVuSans-102"/>
     </defs>
     <use xlink:href="#DejaVuSans-80"/>
     <use x="56.677734" xlink:href="#DejaVuSans-111"/>
     <use x="117.859375" xlink:href="#DejaVuSans-112"/>
     <use x="181.335938" xlink:href="#DejaVuSans-117"/>
     <use x="244.714844" xlink:href="#DejaVuSans-108"/>
     <use x="272.498047" xlink:href="#DejaVuSans-97"/>
     <use x="333.777344" xlink:href="#DejaVuSans-116"/>
     <use x="372.986328" xlink:href="#DejaVuSans-105"/>
     <use x="400.769531" xlink:href="#DejaVuSans-111"/>
     <use x="461.951172" xlink:href="#DejaVuSans-110"/>
     <use x="525.330078" xlink:href="#DejaVuSans-39"/>
     <use x="552.820312" xlink:href="#DejaVuSans-115"/>
     <use x="604.919922" xlink:href="#DejaVuSans-32"/>
     <use x="636.707031" xlink:href="#DejaVuSans-97"/>
     <use x="697.986328" xlink:href="#DejaVuSans-118"/>
     <use x="757.166016" xlink:href="#DejaVuSans-101"/>
     <use x="818.689453" xlink:href="#DejaVuSans-114"/>
     <use x="859.802734" xlink:href="#DejaVuSans-97"/>
     <use x="921.082031" xlink:href="#DejaVuSans-103"/>
     <use x="984.558594" xlink:href="#DejaVuSans-101"/>
     <use x="1046.082031" xlink:href="#DejaVuSans-32"/>
     <use x="1077.869141" xlink:href="#DejaVuSans-97"/>
     <use x="1139.148438" xlink:href="#DejaVuSans-110"/>
     <use x="1202.527344" xlink:href="#DejaVuSans-100"/>
     <use x="1266.003906" xlink:href="#DejaVuSans-32"/>
     <use x="1297.791016" xlink:href="#DejaVuSans-98"/>
     <use x="1361.267578" xlink:href="#DejaVuSans-101"/>
     <use x="1422.791016" xlink:href="#DejaVuSans-115"/>
     <use x="1474.890625" xlink:href="#DejaVuSans-116"/>
     <use x="1514.099609" xlink:href="#DejaVuSans-32"/>
     <use x="1545.886719" xlink:href="#DejaVuSans-102"/>
     <use x="1581.091797" xlink:href="#DejaVuSans-105"/>
     <use x="1608.875" xlink:href="#DejaVuSans-116"/>
     <use x="1648.083984" xlink:href="#DejaVuSans-110"/>
     <use x="1711.462891" xlink:href="#DejaVuSans-101"/>
     <use x="1772.986328" xlink:href="#DejaVuSans-115"/>
     <use x="1825.085938" xlink:href="#DejaVuSans-115"/>
    </g>
   </g>
   <g id="legend_1">
    <g id="patch_7">
     <path d="M 334.779375 302.584 
L 407.72 302.584 
Q 409.72 302.584 409.72 300.584 
L 409.72 242.8715 
Q 409.72 240.8715 407.72 240.8715 
L 334.779375 240.8715 
Q 332.779375 240.8715 332.779375 242.8715 
L 332.779375 300.584 
Q 332.779375 302.584 334.779375 302.584 
z
" style="fill:#ffffff;opacity:0.8;stroke:#cccccc;stroke-linejoin:miter;"/>
    </g>
    <g id="line2d_39">
     <path d="M 336.779375 248.969937 
L 356.779375 248.969937 
" style="fill:none;stroke:#0000ff;stroke-linecap:square;stroke-width:1.5;"/>
    </g>
    <g id="line2d_40"/>
    <g id="text_21">
     <!-- average -->
     <g transform="translate(364.779375 252.469937)scale(0.1 -0.1)">
      <use xlink:href="#DejaVuSans-97"/>
      <use x="61.279297" xlink:href="#DejaVuSans-118"/>
      <use x="120.458984" xlink:href="#DejaVuSans-101"/>
      <use x="181.982422" xlink:href="#DejaVuSans-114"/>
      <use x="223.095703" xlink:href="#DejaVuSans-97"/>
      <use x="284.375" xlink:href="#DejaVuSans-103"/>
      <use x="347.851562" xlink:href="#DejaVuSans-101"/>
     </g>
    </g>
    <g id="line2d_41">
     <path d="M 336.779375 263.648062 
L 356.779375 263.648062 
" style="fill:none;stroke:#008000;stroke-dasharray:9.6,2.4,1.5,2.4;stroke-dashoffset:0;stroke-width:1.5;"/>
    </g>
    <g id="line2d_42"/>
    <g id="text_22">
     <!-- -1 sd -->
     <g transform="translate(364.779375 267.148062)scale(0.1 -0.1)">
      <defs>
       <path d="M 4.890625 31.390625 
L 31.203125 31.390625 
L 31.203125 23.390625 
L 4.890625 23.390625 
z
" id="DejaVuSans-45"/>
      </defs>
      <use xlink:href="#DejaVuSans-45"/>
      <use x="36.083984" xlink:href="#DejaVuSans-49"/>
      <use x="99.707031" xlink:href="#DejaVuSans-32"/>
      <use x="131.494141" xlink:href="#DejaVuSans-115"/>
      <use x="183.59375" xlink:href="#DejaVuSans-100"/>
     </g>
    </g>
    <g id="line2d_43">
     <path d="M 336.779375 278.326187 
L 356.779375 278.326187 
" style="fill:none;stroke:#008000;stroke-dasharray:9.6,2.4,1.5,2.4;stroke-dashoffset:0;stroke-width:1.5;"/>
    </g>
    <g id="line2d_44"/>
    <g id="text_23">
     <!-- +1 sd -->
     <g transform="translate(364.779375 281.826187)scale(0.1 -0.1)">
      <defs>
       <path d="M 46 62.703125 
L 46 35.5 
L 73.1875 35.5 
L 73.1875 27.203125 
L 46 27.203125 
L 46 0 
L 37.796875 0 
L 37.796875 27.203125 
L 10.59375 27.203125 
L 10.59375 35.5 
L 37.796875 35.5 
L 37.796875 62.703125 
z
" id="DejaVuSans-43"/>
      </defs>
      <use xlink:href="#DejaVuSans-43"/>
      <use x="83.789062" xlink:href="#DejaVuSans-49"/>
      <use x="147.412109" xlink:href="#DejaVuSans-32"/>
      <use x="179.199219" xlink:href="#DejaVuSans-115"/>
      <use x="231.298828" xlink:href="#DejaVuSans-100"/>
     </g>
    </g>
    <g id="line2d_45">
     <path d="M 336.779375 293.004312 
L 356.779375 293.004312 
" style="fill:none;stroke:#ff0000;stroke-linecap:square;stroke-width:1.5;"/>
    </g>
    <g id="line2d_46"/>
    <g id="text_24">
     <!-- best -->
     <g transform="translate(364.779375 296.504312)scale(0.1 -0.1)">
      <use xlink:href="#DejaVuSans-98"/>
      <use x="63.476562" xlink:href="#DejaVuSans-101"/>
      <use x="125" xlink:href="#DejaVuSans-115"/>
      <use x="177.099609" xlink:href="#DejaVuSans-116"/>
     </g>
    </g>
   </g>
  </g>
 </g>
 <defs>
  <clipPath id="p8a693c28c7">
   <rect height="266.112" width="357.12" x="57.6" y="41.472"/>
  </clipPath>
 </defs>
</svg>
